<svg width="104" height="104" viewBox="0 0 104 104" fill="none" xmlns="http://www.w3.org/2000/svg">
<path d="M76.0957 34.627L73.7031 43.2695H28L30.3926 34.627H76.0957ZM53.9766 88.0938L29.416 59.1387L29.3672 51.8633H41.0371C44.0645 51.8633 46.5547 51.3262 48.5078 50.252C50.4935 49.1452 51.9746 47.6641 52.9512 45.8086C53.9277 43.9206 54.416 41.821 54.416 39.5098C54.416 37.0033 53.9603 34.7897 53.0488 32.8691C52.1374 30.9486 50.6888 29.4512 48.7031 28.377C46.7174 27.3027 44.097 26.7656 40.8418 26.7656H28.0488L30.6855 17H40.8418C46.6035 17 51.3887 17.8626 55.1973 19.5879C59.0059 21.3132 61.8542 23.8197 63.7422 27.1074C65.6628 30.3952 66.623 34.3665 66.623 39.0215C66.623 43.0905 65.9232 46.6875 64.5234 49.8125C63.1237 52.9049 60.8613 55.4115 57.7363 57.332C54.6113 59.2201 50.4609 60.3919 45.2852 60.8477L67.7461 87.459V88.0938H53.9766ZM76.1445 17L73.7031 25.6426H36.3496L38.7422 17H76.1445Z" fill="black"/>
</svg>
